<?xml version="1.0" encoding="UTF-8" standalone="no"?>
<svg width="500px" height="460px" viewBox="0 0 500 460" version="1.1" xmlns="http://www.w3.org/2000/svg" xmlns:xlink="http://www.w3.org/1999/xlink">
    <!-- Generator: Sketch 3.7.2 (28276) - http://www.bohemiancoding.com/sketch -->
    <title>logo-logotype</title>
    <desc>Created with Sketch.</desc>
    <defs></defs>
    <g id="logo" stroke="none" stroke-width="1" fill="none" fill-rule="evenodd">
        <g id="logo-logotype">
            <g id="lockup">
                <path d="M0,454.926243 C0,457.431464 2.04716279,459.481191 4.43551937,459.481191 C6.93760722,459.481191 8.98477001,457.431464 8.98477001,454.926243 L8.98477001,424.180346 L48.5632506,424.180346 C50.8378759,424.180346 52.6575761,422.358367 52.6575761,420.080893 C52.6575761,417.803419 50.8378759,415.98144 48.5632506,415.98144 L8.98477001,415.98144 L8.98477001,387.513017 L53.6811575,387.513017 C55.9557829,387.513017 57.7754831,385.577164 57.7754831,383.29969 C57.7754831,381.022217 55.9557829,379.200237 53.6811575,379.200237 L4.43551937,379.200237 C2.04716279,379.200237 0,381.249964 0,383.755185 L0,454.926243 Z M95.8138528,378.630869 L95.3589277,378.630869 C92.7431086,378.630869 91.1508709,380.111227 90.1272895,382.388701 L59.3061164,453.673633 C59.0786539,454.243001 58.9649226,454.81237 58.9649226,455.495612 C58.9649226,457.773086 60.8983541,459.822812 63.400442,459.822812 C65.4476047,459.822812 67.0398425,458.22858 67.8359613,456.634349 L95.472659,390.359859 L122.995625,456.406601 C123.791744,458.342454 125.383982,459.822812 127.658607,459.822812 C130.160695,459.822812 132.207858,457.659212 132.207858,455.381738 C132.207858,454.584622 132.094127,454.015254 131.752933,453.332012 L101.045491,382.388701 C100.135641,380.111227 98.4296719,378.630869 95.8138528,378.630869 L95.8138528,378.630869 Z M164.621269,459.822812 L165.076194,459.822812 C167.692013,459.822812 169.284251,458.342454 170.307832,456.06498 L201.129005,384.780048 C201.356468,384.21068 201.470199,383.641311 201.470199,382.958069 C201.470199,380.680595 199.536767,378.630869 197.034679,378.630869 C194.987517,378.630869 193.395279,380.225101 192.59916,381.819332 L164.962462,448.093822 L137.439496,382.04708 C136.643377,380.111227 135.05114,378.630869 132.776514,378.630869 C130.274426,378.630869 128.227264,380.794469 128.227264,383.071943 C128.227264,383.869059 128.340995,384.438427 128.682189,385.121669 L159.38963,456.06498 C160.299481,458.342454 162.00545,459.822812 164.621269,459.822812 L164.621269,459.822812 Z M219.804627,454.926243 C219.804627,457.431464 221.851789,459.481191 224.240146,459.481191 C226.742234,459.481191 228.789397,457.431464 228.789397,454.926243 L228.789397,383.185817 C228.789397,380.680595 226.742234,378.630869 224.240146,378.630869 C221.851789,378.630869 219.804627,380.680595 219.804627,383.185817 L219.804627,454.926243 Z M289.090662,460.278307 C302.169757,460.278307 310.813333,455.723359 318.660791,448.549316 C319.45691,447.866074 320.139297,446.727337 320.139297,445.360853 C320.139297,443.083379 318.092134,441.033653 315.817509,441.033653 C314.680196,441.033653 313.656615,441.603021 312.974227,442.286263 C306.150352,448.549316 299.212744,451.965527 289.318124,451.965527 C271.803509,451.965527 258.496951,437.503568 258.496951,419.05603 L258.496951,418.828283 C258.496951,400.494618 271.689778,386.146533 289.318124,386.146533 C299.099013,386.146533 306.03662,389.790491 312.178109,395.256428 C312.860496,395.711923 313.884078,396.281291 315.135122,396.281291 C317.523478,396.281291 319.684372,394.231565 319.684372,391.840217 C319.684372,390.245986 318.774522,388.993375 317.864672,388.196259 C310.47214,382.04708 302.283488,377.833753 289.431855,377.833753 C266.003215,377.833753 249.170987,396.509039 249.170987,419.05603 L249.170987,419.283777 C249.170987,442.17239 266.116946,460.278307 289.090662,460.278307 L289.090662,460.278307 Z M371.910717,460.278307 C396.135477,460.278307 412.62651,441.033653 412.62651,419.05603 L412.62651,418.828283 C412.62651,396.85066 396.362939,377.833753 372.13818,377.833753 C347.91342,377.833753 331.422387,397.078407 331.422387,419.05603 L331.422387,419.283777 C331.422387,441.2614 347.685958,460.278307 371.910717,460.278307 L371.910717,460.278307 Z M372.13818,451.965527 C353.941177,451.965527 340.74835,437.161947 340.74835,419.05603 L340.74835,418.828283 C340.74835,400.722365 353.713715,386.146533 371.910717,386.146533 C390.10772,386.146533 403.300547,400.950113 403.300547,419.05603 L403.300547,419.283777 C403.300547,437.389695 390.335182,451.965527 372.13818,451.965527 L372.13818,451.965527 Z M432.211982,455.040117 C432.211982,457.431464 434.145414,459.481191 436.53377,459.481191 C439.035858,459.481191 440.96929,457.431464 440.96929,455.040117 L440.96929,393.320575 L490.328659,456.520475 C491.693434,458.114707 493.05821,459.253444 494.991641,459.253444 L495.446566,459.253444 C497.834923,459.253444 499.540892,457.431464 499.540892,455.040117 L499.540892,383.071943 C499.540892,380.680595 497.60746,378.630869 495.219104,378.630869 C492.717016,378.630869 490.783584,380.680595 490.783584,383.071943 L490.783584,443.197253 L442.447796,381.477711 C441.196752,379.88348 439.945708,378.858616 437.898546,378.858616 L436.647502,378.858616 C434.259145,378.858616 432.211982,380.908343 432.211982,383.29969 L432.211982,455.040117 Z" id="logotype" fill="#B1B2B1"></path>
                <g id="logo" transform="translate(129.093199, 0.000000)">
                    <polygon id="Shape" fill="#FFFFFF" points="232.003182 306.575633 8.28582792 306.575633 8.28582792 8.28582792 158.811702 8.28582792 232.003182 78.7153652"></polygon>
                    <g id="Page-1" fill="#B1B2B1">
                        <g id="Group">
                            <path d="M22.3973524,0 C10.0620591,0.0514482853 0.0699057651,10.0286614 0,22.3638638 L0,292.497045 C0.0673135384,304.83342 10.0608912,314.812302 22.3973524,314.861461 L217.891105,314.861461 C230.227757,314.812544 240.221634,304.83361 240.28901,292.497045 L240.28901,83.215426 C240.276684,82.8056763 240.218923,82.39856 240.116789,82.0015522 C240.117709,81.9442327 240.117709,81.8869086 240.116789,81.8295799 C240.063391,81.7129706 240.005975,81.5983178 239.94454,81.4856213 C239.945461,81.4283018 239.945461,81.3709777 239.94454,81.313649 C239.891143,81.197049 239.833726,81.0823961 239.772292,80.9696904 C239.716132,80.9111188 239.658716,80.8537947 239.600043,80.7977181 C239.600964,80.7403986 239.600964,80.6830744 239.600043,80.6257457 C239.543884,80.5671741 239.486477,80.50985 239.427822,80.4537734 C239.374425,80.3371734 239.317008,80.2225205 239.255574,80.1098148 C239.199414,80.0512432 239.141998,79.9939191 239.083325,79.9378425 C239.029927,79.8212425 238.972521,79.7065896 238.911104,79.593884 C238.854945,79.5353032 238.797528,79.477979 238.738856,79.4219116 C238.682696,79.3633308 238.62528,79.3060067 238.566607,79.2499392 L157.483497,1.58220646 C157.077798,1.16506248 156.609086,0.814240538 156.094503,0.542569822 C155.923354,0.476669871 155.749264,0.419345751 155.572233,0.370597463 C155.401094,0.304688306 155.226995,0.247359583 155.049936,0.198611295 C154.878797,0.132711344 154.704712,0.0753872244 154.52768,0.0266389368 C154.23884,0.00404773157 153.948677,0.00404773157 153.659836,0.0266389368 L22.4067982,0.0266389368 L22.3973524,0 Z M147.763931,12.2200357 L147.763931,66.3992554 C147.763931,78.6674317 158.21022,90.9354009 170.491764,90.9354009 L227.860268,90.9354009 L227.860268,292.497045 C227.860268,298.775368 224.16494,302.432719 217.891105,302.432719 L22.3973524,302.432719 C16.1240692,302.432719 12.4287419,298.775368 12.4287419,292.497045 L12.4287419,22.3638638 C12.4287419,16.0999575 16.1240692,12.2200357 22.3973524,12.2200357 L147.763931,12.2200357 L147.763931,12.2200357 Z M219.57444,78.7153652 L170.491764,78.7153652 C164.216257,78.7153652 160.192673,72.6703704 160.192673,66.3992554 L160.192673,20.5058636 L219.57444,78.7153652 Z" id="Shape"></path>
                        </g>
                    </g>
                    <path d="M42.0714289,108.441656 C43.3937955,107.11929 45.1956363,106.389308 47.0655188,106.418396 L101.375972,106.418396 C103.058067,106.415343 104.672168,107.0821 105.861729,108.271384 C107.05129,109.460668 107.718423,111.074613 107.715763,112.756709 C107.715763,116.266102 104.885366,119.935799 101.375972,119.935799 L53.8578815,120.144505 L53.8578815,140.859075 L96.2827014,140.859075 C98.7871056,140.801962 101.126104,142.105386 102.395084,144.265245 C103.664063,146.425105 103.664063,149.102758 102.395084,151.262617 C101.126104,153.422477 98.7871056,154.725901 96.2827014,154.668788 L53.8578815,154.668788 L53.8578815,179.318007 C53.8953729,181.140957 53.1954588,182.901864 51.9167579,184.201662 C50.638057,185.50146 48.8888378,186.230094 47.0655188,186.222436 C45.2133805,186.2578 43.4251128,185.545414 42.1046331,184.246183 C40.7841534,182.946952 40.0428524,181.170476 40.0481683,179.318007 L40.0481683,113.435746 C40.0190808,111.565864 40.7490624,109.764023 42.0714289,108.441656 Z" id="Shape" fill="#29AAFF"></path>
                    <path d="M174.876541,112.00042 L202.221941,176.2898 C202.715905,177.298388 202.982459,178.403111 203.002784,179.525982 C202.98435,181.335101 202.242256,183.061508 200.942199,184.319722 C199.642141,185.577937 197.892389,186.263176 196.083634,186.222436 C192.912389,186.31818 190.053956,184.322032 189.051728,181.311798 L166.505618,124.946529 L143.625478,181.758612 C142.554385,184.456853 139.943426,186.226735 137.040371,186.222436 C135.260346,186.265543 133.537411,185.592861 132.257487,184.355063 C130.977562,183.117266 130.247615,181.417801 130.231147,179.637329 C130.269116,178.636364 130.496288,177.651642 130.900656,176.735204 L158.357362,112.00042 C159.493013,108.605908 162.70424,106.3444 166.282909,106.418851 L167.063751,106.418851 C170.605072,106.38123 173.764165,108.638131 174.876541,112.00042 L174.876541,112.00042 Z" id="Shape" fill="#EFA200"></path>
                    <path d="M174.353844,223.809257 L174.353844,223.717354 C174.256141,219.300972 175.964389,215.035877 179.083716,211.907974 C182.203043,208.780072 186.463432,207.06012 190.880065,207.145698 C194.854865,207.013447 198.747802,208.294872 201.866908,210.7622 C202.562599,211.297764 202.968562,212.127262 202.964655,213.005215 C202.939017,214.05495 202.33141,215.003213 201.388429,215.465153 C200.445448,215.927093 199.32377,215.825959 198.478625,215.202796 C196.363497,213.347522 193.64707,212.322674 190.833568,212.318485 C184.745832,212.318485 180.259802,217.354888 180.259802,223.6265 L180.259802,223.717354 C180.259802,229.988911 184.700384,235.070802 190.833568,235.070802 C193.800035,235.121613 196.671075,234.022479 198.845218,232.003665 C199.312762,231.590679 199.915018,231.362628 200.538841,231.362356 C201.982676,231.374175 203.157161,232.528562 203.193897,233.971977 C203.189743,234.74293 202.856897,235.475498 202.278934,235.985737 C199.116776,238.888864 194.941068,240.434187 190.65081,240.28901 C186.281516,240.339156 182.079136,238.612979 179.006653,235.506035 C175.93417,232.399091 174.25497,228.177721 174.353844,223.809257 L174.353844,223.809257 Z" id="Shape" fill="#84B221"></path>
                    <path d="M126.28335,270.762282 L126.28335,270.670379 C126.173093,264.798188 129.236933,259.322585 134.299219,256.34466 C139.361505,253.366734 145.635979,253.349006 150.715011,256.298279 C155.794044,259.247553 158.888775,264.705755 158.811702,270.578475 L158.811702,270.670379 C158.921959,276.542569 155.858119,282.018172 150.795833,284.996098 C145.733547,287.974024 139.459073,287.991751 134.380041,285.042478 C129.301009,282.093205 126.206277,276.635002 126.28335,270.762282 L126.28335,270.762282 Z M153.078724,270.762282 L153.078724,270.670379 C153.078724,264.445291 148.679999,259.271496 142.502928,259.271496 C136.326865,259.271496 132.016342,264.353388 132.016342,270.578475 L132.016342,270.670379 C132.016342,276.896502 136.415068,282.023827 142.592138,282.023827 C148.768201,282.023827 153.07871,276.98737 153.07871,270.762282 L153.078724,270.762282 Z" id="Shape" fill="#84B221"></path>
                    <path d="M175.383358,257.037112 C175.379115,256.268791 175.682453,255.53071 176.225747,254.987416 C176.76904,254.444122 177.507121,254.140784 178.275443,254.145027 L179.424245,254.145027 C180.638585,254.167384 181.760409,254.798485 182.410002,255.824716 L197.478899,277.575235 L197.478899,256.897137 C197.453958,256.168402 197.72417,255.460441 198.228317,254.933646 C198.732464,254.406851 199.427875,254.105809 200.157003,254.098723 C200.905828,254.091233 201.626833,254.382143 202.160784,254.907207 C202.694735,255.432271 202.997705,256.148291 203.002784,256.897137 L203.002784,284.328751 C203.01814,285.080064 202.729642,285.80578 202.202649,286.341489 C201.675656,286.877199 200.95477,287.177562 200.203307,287.174533 L199.96966,287.174533 C198.746332,287.141971 197.622632,286.492388 196.983903,285.448539 L180.907243,262.384551 L180.907243,284.422478 C180.932218,285.151323 180.662051,285.859413 180.157927,286.386384 C179.653803,286.913355 178.958375,287.214622 178.229139,287.221955 C177.480094,287.229574 176.758857,286.938563 176.224847,286.413244 C175.690837,285.887926 175.38803,285.17156 175.383358,284.422492 L175.383358,257.037112 L175.383358,257.037112 Z" id="Shape" fill="#84B221"></path>
                    <path d="M65.8322838,281.3677 L38.4868973,217.07832 C37.9929353,216.069736 37.7263822,214.965018 37.7060547,213.842152 C37.7244883,212.033032 38.4665826,210.306626 39.7666403,209.048411 C41.0666979,207.790197 42.8164494,207.104958 44.6252044,207.145698 C47.7964501,207.049954 50.6548828,209.046102 51.6571103,212.056335 L74.203221,268.421605 L97.083361,211.609522 C98.1544556,208.911276 100.765421,207.141393 103.668481,207.145698 C105.448507,207.102591 107.171441,207.775273 108.451366,209.013071 C109.731291,210.250868 110.461237,211.950333 110.477706,213.730804 C110.439737,214.731769 110.212565,215.716491 109.808197,216.63293 L82.3514627,281.3677 C81.2158124,284.762212 78.0045848,287.02372 74.4259164,286.949269 L73.6450738,286.949269 C70.1037534,286.98689 66.9446601,284.729989 65.8322838,281.3677 L65.8322838,281.3677 Z" id="Shape" fill="#EF4D21"></path>
                    <g id="Group" transform="translate(130.562552, 207.145698)" fill="#84B221">
                        <path d="M3.44774681,5.52388528 C2.70885547,5.56202765 1.9870679,5.29301116 1.45338418,4.78056903 C0.919700469,4.2681269 0.621606002,3.55785451 0.629722922,2.81802389 C0.624898573,2.06916894 0.920247216,1.34958709 1.44977861,0.820055691 C1.97931001,0.290524294 2.69889186,-0.00482434911 3.44774681,-3.12925006e-14 L19.9072402,-3.12925006e-14 C20.6560951,-0.00482434911 21.375677,0.290524294 21.9052084,0.820055691 C22.4347397,1.34958709 22.7300884,2.06916894 22.725264,2.81802389 C22.733381,3.55785451 22.4352865,4.2681269 21.9016028,4.78056903 C21.3679191,5.29301116 20.6461315,5.56202765 19.9072402,5.52388528 L3.44774681,5.52388528 L3.44774681,5.52388528 Z" id="Shape"></path>
                        <path d="M3.44774681,33.1433117 C2.6917128,33.1454689 1.96669282,32.8429383 1.43642491,32.3040431 C0.906157002,31.7651479 0.615365627,31.0353403 0.629722922,30.2794395 C0.631527735,29.5466992 0.934315897,28.8468853 1.4671666,28.3439123 C2.00001731,27.8409393 2.71612068,27.5789924 3.44774681,27.6194264 L19.9072402,27.6194264 C20.6388663,27.5789924 21.3549697,27.8409393 21.8878204,28.3439123 C22.4206711,28.8468853 22.7234592,29.5466992 22.725264,30.2794395 C22.7396213,31.0353403 22.44883,31.7651479 21.9185621,32.3040431 C21.3882941,32.8429383 20.6632742,33.1454689 19.9072402,33.1433117 L3.44774681,33.1433117 L3.44774681,33.1433117 Z" id="Shape"></path>
                        <rect id="Rectangle-path" x="8.91555084" y="2.76194264" width="5.52388528" height="27.6194264"></rect>
                    </g>
                </g>
            </g>
        </g>
    </g>
</svg>