<?xml version="1.0" encoding="UTF-8" standalone="no"?>
<svg width="100px" height="100px" viewBox="0 0 100 100" version="1.1" xmlns="http://www.w3.org/2000/svg" xmlns:xlink="http://www.w3.org/1999/xlink">
    <!-- Generator: Sketch 3.7.1 (28215) - http://www.bohemiancoding.com/sketch -->
    <title>logo</title>
    <desc>Created with Sketch.</desc>
    <defs></defs>
    <g id="logo" stroke="none" stroke-width="1" fill="none" fill-rule="evenodd">
        <g>
            <ellipse id="background" fill="#FFEEB3" cx="48.1463651" cy="50.3267974" rx="47.1463651" ry="47.0588235"></ellipse>
            <g transform="translate(10.822159, 0.000000)">
                <path d="M67.796667,16.1459981 C81.5176173,16.1459981 83.2541751,21.6687453 69.9966367,35.212429 C65.4169396,39.8919961 68.164428,46.3404264 70.7404045,50.2114647 C73.3180302,54.0775528 78.1385035,58.0426444 69.9966367,64.7583842 C65.2520244,68.670674 64.5313446,73.5251473 69.9966367,84.2719811 C75.4272965,94.9544627 56.3169151,90.1643416 40.3465205,94.768006 C19.1549085,100.876524 13.8776199,106.937191 11.4698569,75.2395586 C10.0334449,56.2787314 7.12433961,63.5571413 1.55844929,47.6340726 C-1.38528826,39.2220722 2.10926629,34.0656381 10.0202517,31.0014786 C16.6910743,28.4224365 -3.77820881,15.9611915 8.55085668,4.91404693 C24.2639835,-9.16260581 46.49786,16.1459981 67.8032636,16.1459981" id="Shape" fill="#F46767"></path>
                <ellipse id="Oval" fill="#FFFFFF" cx="60.3260053" cy="39.5850852" rx="6.61310228" ry="6.47978142"></ellipse>
                <ellipse id="Oval" fill="#454749" cx="58.1326322" cy="39.5850852" rx="2.75573414" ry="2.70114647"></ellipse>
                <ellipse id="Oval" fill="#FFFFFF" cx="29.8991382" cy="35.2701811" rx="10.4539789" ry="10.2419158"></ellipse>
                <g id="Group" transform="translate(8.245763, 18.804243)" fill="#454749">
                    <ellipse id="Oval" cx="18.1901541" cy="16.4659381" rx="4.35541225" ry="4.26705239"></ellipse>
                    <g id="Shape" stroke="#454749" stroke-width="1.3595866">
                        <path d="M9.47438219,2.72424729 L9.6970178,2.62854388 L9.92295172,2.54604093 L10.3731704,2.38763527 C10.6733162,2.2902818 10.9718128,2.20447873 11.2818535,2.13022608 C11.8936892,1.97512054 12.5154197,1.86456659 13.1371503,1.77876353 C14.3905063,1.61540769 15.6521082,1.58900675 16.9219557,1.68141005 C19.4501068,1.86786671 21.9700121,2.54439087 24.2689309,3.65653059 C26.5744464,4.76207007 28.6523788,6.29332476 30.3625501,8.11498982 C31.2168112,9.03077253 31.9770706,10.0142077 32.6235385,11.0685953 C32.9451232,11.5966142 33.245269,12.1378335 33.5058351,12.7005036 C33.6377674,12.9793635 33.7565064,13.2664738 33.8735962,13.5535841 L34.0319149,13.9957998 L34.109425,14.2152577 L34.1770403,14.4446159 L33.9642996,14.6129219 C33.2073385,13.7284903 32.4157452,12.87871 31.5779757,12.068531 C30.750101,11.255052 29.8842958,10.4778742 28.9723144,9.75349834 C27.1582465,8.30309654 25.1908073,7.03420122 23.081541,6.03591557 C20.9821696,5.01617915 18.7525152,4.26870245 16.4684387,3.77203472 C15.3255759,3.5195757 14.1629233,3.33311904 12.9969723,3.20771456 C11.8343197,3.07570985 10.6551755,3.00475731 9.47932965,2.98825672 L9.47932965,2.72424729 L9.47438219,2.72424729 Z"></path>
                        <path d="M61.7607681,10.9679417 L61.6156427,10.8936891 L61.467219,10.8293368 L61.1670732,10.7022822 C60.970824,10.6263795 60.7679782,10.555427 60.5684307,10.4976749 C60.1627392,10.3755706 59.7570476,10.2864674 59.3447594,10.220465 C58.5168848,10.0901104 57.6791152,10.0686596 56.844644,10.1412622 C55.1724031,10.2914176 53.5133555,10.8293368 51.9911876,11.7104682 C50.4706688,12.5899496 49.0985738,13.804393 47.9689042,15.2531448 C47.4081923,15.9775206 46.9035516,16.7612986 46.4747719,17.5995286 C46.2620312,18.0186435 46.065782,18.4476588 45.8942701,18.8948248 C45.806865,19.1175828 45.7260566,19.3452909 45.6501955,19.572999 L45.5462989,19.9228115 L45.4984735,20.0977178 L45.4539464,20.2792243 L45.5924752,20.411229 C46.0921685,19.7083039 46.616599,19.0334298 47.167416,18.3899068 C47.7149347,17.7414336 48.2888398,17.1243116 48.8907806,16.5500911 C50.0897146,15.3966999 51.3875977,14.3901639 52.7778334,13.5981356 C54.1631217,12.7863067 55.6341659,12.1922854 57.1447898,11.7979214 C57.9017508,11.5966142 58.6653085,11.451409 59.4387612,11.3507554 C60.2089155,11.2451516 60.9856664,11.1857495 61.7607681,11.1741991 L61.7607681,10.9679417 L61.7607681,10.9679417 Z"></path>
                        <path d="M59.8312595,35.2617593 L59.7867324,35.392114 L59.729012,35.5175185 L59.6168696,35.7683274 C59.5360612,35.9316833 59.4519544,36.091739 59.3596018,36.2484946 C59.1765459,36.5603557 58.9737001,36.8606665 58.7543628,37.1477767 C58.3123899,37.7236473 57.8044508,38.2434158 57.2404406,38.7103825 C56.1157185,39.6443159 54.7799048,40.3604414 53.3335979,40.796057 C51.8938876,41.2349727 50.3502807,41.3983285 48.8314111,41.2828244 C48.0711517,41.2217722 47.3141906,41.0947177 46.5770193,40.8901104 C46.20596,40.7861566 45.8431464,40.6690025 45.481982,40.5254473 C45.3022243,40.4577949 45.1208175,40.376942 44.9476565,40.2960891 L44.6837921,40.1657345 L44.5518598,40.0997321 L44.4232259,40.0254795 L44.4364192,39.8670738 C45.1455548,39.9545269 45.849743,40.0089789 46.5588787,40.0287796 C47.2680143,40.0551805 47.9689042,40.0485803 48.668145,40.0007286 C50.0666264,39.9083253 51.4453181,39.677317 52.7580436,39.2697525 C54.0790149,38.8753884 55.332371,38.3077681 56.4950236,37.603193 C57.0788237,37.2550305 57.6378864,36.8689167 58.173861,36.456402 C58.7114848,36.0471874 59.2276696,35.6049716 59.7207663,35.1380049 L59.8312595,35.2568092 L59.8312595,35.2617593 Z"></path>
                        <path d="M1.58153743,25.3696561 L1.72336456,25.6699668 L1.88498152,25.9636773 L2.19996968,26.5477981 C2.4226053,26.9273117 2.65348667,27.3051752 2.89921042,27.6731383 C3.38571047,28.4107147 3.91673763,29.1235401 4.47415124,29.8182149 C5.60546998,31.2026144 6.86707179,32.4847102 8.22927191,33.6727526 C10.9536721,36.0339869 14.095308,37.9728062 17.3903151,39.3275046 C20.6820238,40.6888032 24.1122614,41.4709311 27.42376,41.6342869 C29.0894042,41.7085396 30.7022756,41.6375871 32.2739181,41.3933783 C33.0605639,41.2663238 33.8290691,41.1079181 34.5794335,40.8917604 C34.9570895,40.7878067 35.3264997,40.6657023 35.6909625,40.5369977 L36.2351828,40.32084 L36.4990473,40.2119361 L36.76621,40.0865317 L36.6985947,39.7367192 C35.1648827,39.7284689 33.6262233,39.6558663 32.0727215,39.5057109 C30.5291145,39.367106 28.9805602,39.1575485 27.4287075,38.863838 C24.3332479,38.2797171 21.2377883,37.3870353 18.2363304,36.1313404 C15.2282759,34.9020465 12.3224689,33.3097396 9.5716822,31.4517733 C8.19628886,30.5260902 6.85882603,29.5212043 5.56424117,28.4651666 C4.266358,27.4173792 3.01630026,26.3068895 1.8091205,25.1485482 L1.58153743,25.3713061 L1.58153743,25.3696561 Z"></path>
                    </g>
                </g>
                <path d="M45.6271074,36.1958641 C45.8777786,31.7638059 49.0589941,43.6244294 54.5572692,46.0648666 C64.3202531,50.4012215 71.2994673,41.6707597 79.213751,39.2187721 C87.1280348,36.7667845 92.5784844,51.6107147 84.667499,54.7408765 C76.7532152,57.8710383 51.7388673,58.8462231 46.7040041,51.3698061 C43.1286411,46.0665167 36.9888456,50.8747884 43.1995546,53.1551698 C45.8052159,54.1105539 32.5278876,54.4999679 36.160971,47.0780028 C38.5522424,42.1855781 45.2313108,43.2102647 45.6320549,36.1958641" id="Shape" fill="#C94747"></path>
                <path d="M63.4610446,73.0317797 C63.4346581,69.6029572 59.9467002,67.0503161 47.7841991,65.8771242 C35.6596286,64.7105325 25.3656175,70.3405336 25.4266361,78.5908282 C25.5173395,91.6147434 37.1702524,78.8003857 47.0800109,77.3631844 C58.055122,75.7725276 63.4857818,76.457302 63.4626937,73.0317797 L63.4610446,73.0317797 Z" id="Shape" stroke="#454749" stroke-width="1.3595866" fill="#454749"></path>
                <g id="Group" transform="translate(24.737290, 65.005893)" fill="#FFCE31">
                    <path d="M0.689345823,13.579985 C0.73057464,19.5069967 3.16637316,20.0812172 6.74503449,18.8123219 L4.80233263,5.40724312 C2.2065663,7.57542055 0.667906838,10.3739205 0.689345823,13.579985" id="Shape"></path>
                    <path d="M5.93694967,4.54921247 L7.93407358,18.3503054 C9.49582117,17.6853316 11.222484,16.7744991 13.036552,15.8570663 L11.0394281,2.07247402 C9.12641097,2.70279653 7.39974811,3.53937641 5.93694967,4.54921247" id="Shape"></path>
                    <path d="M12.2400112,1.6995607 L14.2041521,15.2630451 C15.8862878,14.4347155 17.6244948,13.6459874 19.3478593,13.0783671 L17.5700727,0.796978464 C15.6966353,0.933933355 13.9089538,1.24414443 12.2400112,1.6995607" id="Shape"></path>
                    <path d="M23.048558,0.871231115 C21.6088477,0.732626165 20.1938747,0.69467481 18.8184813,0.739226401 L20.5550391,12.7285546 C21.1569798,12.5701489 21.7539731,12.4430944 22.3427206,12.3572913 C23.6026733,12.1741348 24.7818174,12.0239794 25.8949955,11.8919747 L24.3167564,1.00323583 C23.9044682,0.958684239 23.4822851,0.914132648 23.048558,0.871231115" id="Shape"></path>
                    <path d="M25.5964989,1.15504125 L27.1335092,11.7484196 C29.2048449,11.5157613 30.9958248,11.3491053 32.5097469,11.172549 L31.2019688,2.13682632 C29.6385721,1.75731276 27.7832753,1.43060109 25.5964989,1.15504125" id="Shape"></path>
                    <path d="M38.7237542,8.02588664 C38.7072627,5.7372549 37.1455151,3.84298725 32.5064486,2.48663881 L33.7400148,11.0174435 C37.0778999,10.555427 38.7369475,9.92180435 38.7204559,8.02588664" id="Shape"></path>
                </g>
                <path d="M55.7825896,93.6179149 C63.855192,94.4396443 70.8146164,99.6637308 70.8146164,99.6637308 C66.0568109,80.8926605 57.2321949,79.1584485 53.1192081,80.5807993 C47.6110381,82.4816672 46.4731227,92.6724312 55.7825896,93.6179149" id="Shape" fill="#454749"></path>
            </g>
        </g>
    </g>
</svg>