<?xml version="1.0" encoding="UTF-8" standalone="no"?>
<svg width="349px" height="100px" viewBox="0 0 349 100" version="1.1" xmlns="http://www.w3.org/2000/svg" xmlns:xlink="http://www.w3.org/1999/xlink">
    <!-- Generator: Sketch 3.7.1 (28215) - http://www.bohemiancoding.com/sketch -->
    <title>logotype</title>
    <desc>Created with Sketch.</desc>
    <defs></defs>
    <g id="logo" stroke="none" stroke-width="1" fill="none" fill-rule="evenodd">
        <g id="logotype">
            <g id="lockup">
                <ellipse id="background" fill="#FFEEB3" cx="47.1463651" cy="50.3267974" rx="47.1463651" ry="47.0588235"></ellipse>
                <g id="logo" transform="translate(9.822159, 0.000000)">
                    <path d="M67.796667,16.1459981 C81.5176173,16.1459981 83.2541751,21.6687453 69.9966367,35.212429 C65.4169396,39.8919961 68.164428,46.3404264 70.7404045,50.2114647 C73.3180302,54.0775528 78.1385035,58.0426444 69.9966367,64.7583842 C65.2520244,68.670674 64.5313446,73.5251473 69.9966367,84.2719811 C75.4272965,94.9544627 56.3169151,90.1643416 40.3465205,94.768006 C19.1549085,100.876524 13.8776199,106.937191 11.4698569,75.2395586 C10.0334449,56.2787314 7.12433961,63.5571413 1.55844929,47.6340726 C-1.38528826,39.2220722 2.10926629,34.0656381 10.0202517,31.0014786 C16.6910743,28.4224365 -3.77820881,15.9611915 8.55085668,4.91404693 C24.2639835,-9.16260581 46.49786,16.1459981 67.8032636,16.1459981" id="Shape" fill="#F46767"></path>
                    <ellipse id="Oval" fill="#FFFFFF" cx="60.3260053" cy="39.5850852" rx="6.61310228" ry="6.47978142"></ellipse>
                    <ellipse id="Oval" fill="#454749" cx="58.1326322" cy="39.5850852" rx="2.75573414" ry="2.70114647"></ellipse>
                    <ellipse id="Oval" fill="#FFFFFF" cx="29.8991382" cy="35.2701811" rx="10.4539789" ry="10.2419158"></ellipse>
                    <g id="Group" transform="translate(9.245763, 19.804243)" fill="#454749">
                        <ellipse id="Oval" cx="17.1901541" cy="15.4659381" rx="4.35541225" ry="4.26705239"></ellipse>
                        <g id="Shape" stroke="#454749" stroke-width="1.3595866">
                            <path d="M8.47438219,1.72424729 L8.6970178,1.62854388 L8.92295172,1.54604093 L9.3731704,1.38763527 C9.67331619,1.2902818 9.97181283,1.20447873 10.2818535,1.13022608 C10.8936892,0.97512054 11.5154197,0.864566592 12.1371503,0.778763527 C13.3905063,0.615407693 14.6521082,0.58900675 15.9219557,0.68141005 C18.4501068,0.86786671 20.9700121,1.54439087 23.2689309,2.65653059 C25.5744464,3.76207007 27.6523788,5.29332476 29.3625501,7.11498982 C30.2168112,8.03077253 30.9770706,9.01420765 31.6235385,10.0685953 C31.9451232,10.5966142 32.245269,11.1378335 32.5058351,11.7005036 C32.6377674,11.9793635 32.7565064,12.2664738 32.8735962,12.5535841 L33.0319149,12.9957998 L33.109425,13.2152577 L33.1770403,13.4446159 L32.9642996,13.6129219 C32.2073385,12.7284903 31.4157452,11.87871 30.5779757,11.068531 C29.750101,10.255052 28.8842958,9.47787421 27.9723144,8.75349834 C26.1582465,7.30309654 24.1908073,6.03420122 22.081541,5.03591557 C19.9821696,4.01617915 17.7525152,3.26870245 15.4684387,2.77203472 C14.3255759,2.5195757 13.1629233,2.33311904 11.9969723,2.20771456 C10.8343197,2.07570985 9.65517551,2.00475731 8.47932965,1.98825672 L8.47932965,1.72424729 L8.47438219,1.72424729 Z"></path>
                            <path d="M60.7607681,9.96794171 L60.6156427,9.89368906 L60.467219,9.82933676 L60.1670732,9.70228222 C59.970824,9.62637951 59.7679782,9.55542698 59.5684307,9.49767492 C59.1627392,9.37557056 58.7570476,9.28646737 58.3447594,9.22046502 C57.5168848,9.09011036 56.6791152,9.06865959 55.844644,9.14126219 C54.1724031,9.29141755 52.5133555,9.82933676 50.9911876,10.7104682 C49.4706688,11.5899496 48.0985738,12.804393 46.9689042,14.2531448 C46.4081923,14.9775206 45.9035516,15.7612986 45.4747719,16.5995286 C45.2620312,17.0186435 45.065782,17.4476588 44.8942701,17.8948248 C44.806865,18.1175828 44.7260566,18.3452909 44.6501955,18.572999 L44.5462989,18.9228115 L44.4984735,19.0977178 L44.4539464,19.2792243 L44.5924752,19.411229 C45.0921685,18.7083039 45.616599,18.0334298 46.167416,17.3899068 C46.7149347,16.7414336 47.2888398,16.1243116 47.8907806,15.5500911 C49.0897146,14.3966999 50.3875977,13.3901639 51.7778334,12.5981356 C53.1631217,11.7863067 54.6341659,11.1922854 56.1447898,10.7979214 C56.9017508,10.5966142 57.6653085,10.451409 58.4387612,10.3507554 C59.2089155,10.2451516 59.9856664,10.1857495 60.7607681,10.1741991 L60.7607681,9.96794171 L60.7607681,9.96794171 Z"></path>
                            <path d="M58.8312595,34.2617593 L58.7867324,34.392114 L58.729012,34.5175185 L58.6168696,34.7683274 C58.5360612,34.9316833 58.4519544,35.091739 58.3596018,35.2484946 C58.1765459,35.5603557 57.9737001,35.8606665 57.7543628,36.1477767 C57.3123899,36.7236473 56.8044508,37.2434158 56.2404406,37.7103825 C55.1157185,38.6443159 53.7799048,39.3604414 52.3335979,39.796057 C50.8938876,40.2349727 49.3502807,40.3983285 47.8314111,40.2828244 C47.0711517,40.2217722 46.3141906,40.0947177 45.5770193,39.8901104 C45.20596,39.7861566 44.8431464,39.6690025 44.481982,39.5254473 C44.3022243,39.4577949 44.1208175,39.376942 43.9476565,39.2960891 L43.6837921,39.1657345 L43.5518598,39.0997321 L43.4232259,39.0254795 L43.4364192,38.8670738 C44.1455548,38.9545269 44.849743,39.0089789 45.5588787,39.0287796 C46.2680143,39.0551805 46.9689042,39.0485803 47.668145,39.0007286 C49.0666264,38.9083253 50.4453181,38.677317 51.7580436,38.2697525 C53.0790149,37.8753884 54.332371,37.3077681 55.4950236,36.603193 C56.0788237,36.2550305 56.6378864,35.8689167 57.173861,35.456402 C57.7114848,35.0471874 58.2276696,34.6049716 58.7207663,34.1380049 L58.8312595,34.2568092 L58.8312595,34.2617593 Z"></path>
                            <path d="M0.581537427,24.3696561 L0.723364558,24.6699668 L0.884981521,24.9636773 L1.19996968,25.5477981 C1.4226053,25.9273117 1.65348667,26.3051752 1.89921042,26.6731383 C2.38571047,27.4107147 2.91673763,28.1235401 3.47415124,28.8182149 C4.60546998,30.2026144 5.86707179,31.4847102 7.22927191,32.6727526 C9.95367215,35.0339869 13.095308,36.9728062 16.3903151,38.3275046 C19.6820238,39.6888032 23.1122614,40.4709311 26.42376,40.6342869 C28.0894042,40.7085396 29.7022756,40.6375871 31.2739181,40.3933783 C32.0605639,40.2663238 32.8290691,40.1079181 33.5794335,39.8917604 C33.9570895,39.7878067 34.3264997,39.6657023 34.6909625,39.5369977 L35.2351828,39.32084 L35.4990473,39.2119361 L35.76621,39.0865317 L35.6985947,38.7367192 C34.1648827,38.7284689 32.6262233,38.6558663 31.0727215,38.5057109 C29.5291145,38.367106 27.9805602,38.1575485 26.4287075,37.863838 C23.3332479,37.2797171 20.2377883,36.3870353 17.2363304,35.1313404 C14.2282759,33.9020465 11.3224689,32.3097396 8.5716822,30.4517733 C7.19628886,29.5260902 5.85882603,28.5212043 4.56424117,27.4651666 C3.266358,26.4173792 2.01630026,25.3068895 0.809120498,24.1485482 L0.581537427,24.3713061 L0.581537427,24.3696561 Z"></path>
                        </g>
                    </g>
                    <path d="M45.6271074,36.1958641 C45.8777786,31.7638059 49.0589941,43.6244294 54.5572692,46.0648666 C64.3202531,50.4012215 71.2994673,41.6707597 79.213751,39.2187721 C87.1280348,36.7667845 92.5784844,51.6107147 84.667499,54.7408765 C76.7532152,57.8710383 51.7388673,58.8462231 46.7040041,51.3698061 C43.1286411,46.0665167 36.9888456,50.8747884 43.1995546,53.1551698 C45.8052159,54.1105539 32.5278876,54.4999679 36.160971,47.0780028 C38.5522424,42.1855781 45.2313108,43.2102647 45.6320549,36.1958641" id="Shape" fill="#C94747"></path>
                    <path d="M63.4610446,73.0317797 C63.4346581,69.6029572 59.9467002,67.0503161 47.7841991,65.8771242 C35.6596286,64.7105325 25.3656175,70.3405336 25.4266361,78.5908282 C25.5173395,91.6147434 37.1702524,78.8003857 47.0800109,77.3631844 C58.055122,75.7725276 63.4857818,76.457302 63.4626937,73.0317797 L63.4610446,73.0317797 Z" id="Shape" stroke="#454749" stroke-width="1.3595866" fill="#454749"></path>
                    <g id="Group" transform="translate(24.737290, 65.005893)" fill="#FFCE31">
                        <path d="M0.689345823,13.579985 C0.73057464,19.5069967 3.16637316,20.0812172 6.74503449,18.8123219 L4.80233263,5.40724312 C2.2065663,7.57542055 0.667906838,10.3739205 0.689345823,13.579985" id="Shape"></path>
                        <path d="M5.93694967,4.54921247 L7.93407358,18.3503054 C9.49582117,17.6853316 11.222484,16.7744991 13.036552,15.8570663 L11.0394281,2.07247402 C9.12641097,2.70279653 7.39974811,3.53937641 5.93694967,4.54921247" id="Shape"></path>
                        <path d="M12.2400112,1.6995607 L14.2041521,15.2630451 C15.8862878,14.4347155 17.6244948,13.6459874 19.3478593,13.0783671 L17.5700727,0.796978464 C15.6966353,0.933933355 13.9089538,1.24414443 12.2400112,1.6995607" id="Shape"></path>
                        <path d="M23.048558,0.871231115 C21.6088477,0.732626165 20.1938747,0.69467481 18.8184813,0.739226401 L20.5550391,12.7285546 C21.1569798,12.5701489 21.7539731,12.4430944 22.3427206,12.3572913 C23.6026733,12.1741348 24.7818174,12.0239794 25.8949955,11.8919747 L24.3167564,1.00323583 C23.9044682,0.958684239 23.4822851,0.914132648 23.048558,0.871231115" id="Shape"></path>
                        <path d="M25.5964989,1.15504125 L27.1335092,11.7484196 C29.2048449,11.5157613 30.9958248,11.3491053 32.5097469,11.172549 L31.2019688,2.13682632 C29.6385721,1.75731276 27.7832753,1.43060109 25.5964989,1.15504125" id="Shape"></path>
                        <path d="M38.7237542,8.02588664 C38.7072627,5.7372549 37.1455151,3.84298725 32.5064486,2.48663881 L33.7400148,11.0174435 C37.0778999,10.555427 38.7369475,9.92180435 38.7204559,8.02588664" id="Shape"></path>
                    </g>
                    <path d="M55.7825896,93.6179149 C63.855192,94.4396443 70.8146164,99.6637308 70.8146164,99.6637308 C66.0568109,80.8926605 57.2321949,79.1584485 53.1192081,80.5807993 C47.6110381,82.4816672 46.4731227,92.6724312 55.7825896,93.6179149" id="Shape" fill="#454749"></path>
                </g>
                <path d="M122.9,66.4 C122.9,67.492 123.784,68.428 124.928,68.428 C126.072,68.428 126.904,67.492 126.904,66.4 L126.904,44.82 L133.82,44.82 C134.808,44.82 135.588,44.04 135.588,43.104 C135.588,42.116 134.808,41.388 133.82,41.388 L126.852,41.388 L126.852,39.204 C126.852,35.356 128.412,33.484 131.532,33.484 C132.312,33.484 133.04,33.64 133.716,33.744 C134.756,33.848 135.64,33.068 135.64,32.028 C135.64,31.144 134.964,30.468 134.184,30.312 C133.3,30.104 132.312,30 131.012,30 C128.568,30 126.592,30.728 125.24,32.08 C123.732,33.588 122.9,35.928 122.9,38.996 L122.9,41.336 L120.716,41.336 C119.78,41.336 119,42.116 119,43.052 C119,44.04 119.728,44.82 120.716,44.82 L122.9,44.82 L122.9,66.4 Z M150.954,68.74 C155.686,68.74 158.806,66.556 160.678,64.112 L160.678,66.556 C160.678,67.596 161.458,68.428 162.602,68.428 C163.694,68.428 164.526,67.596 164.526,66.452 L164.526,51.736 C164.526,48.304 163.59,45.704 161.77,43.884 C159.794,41.908 156.882,40.92 153.086,40.92 C149.654,40.92 146.95,41.596 144.298,42.74 C143.778,42.948 143.206,43.572 143.206,44.404 C143.206,45.34 144.038,46.12 144.974,46.12 C145.182,46.12 145.442,46.068 145.702,45.964 C147.678,45.08 149.966,44.456 152.67,44.456 C157.714,44.456 160.678,46.952 160.678,51.788 L160.678,52.724 C158.286,52.048 155.842,51.58 152.41,51.58 C145.598,51.58 140.918,54.596 140.918,60.264 L140.918,60.368 C140.918,65.88 145.962,68.74 150.954,68.74 L150.954,68.74 Z M151.734,65.568 C148.094,65.568 144.974,63.592 144.974,60.212 L144.974,60.108 C144.974,56.728 147.782,54.544 152.826,54.544 C156.102,54.544 158.754,55.116 160.73,55.688 L160.73,58.288 C160.73,62.552 156.674,65.568 151.734,65.568 L151.734,65.568 Z M188.368,66.868 L198.508,43.988 C198.612,43.728 198.716,43.364 198.716,43 C198.716,41.908 197.832,41.024 196.74,41.024 C195.7,41.024 195.128,41.7 194.868,42.48 L186.028,63.592 L177.344,42.584 C177.032,41.7 176.46,41.024 175.316,41.024 C174.172,41.024 173.288,41.96 173.288,43 C173.288,43.364 173.444,43.728 173.548,44.092 L183.636,66.868 C184.104,67.908 184.832,68.584 185.924,68.584 L186.132,68.584 C187.224,68.584 187.9,67.908 188.368,66.868 L188.368,66.868 Z M208.934,33.536 C208.934,34.784 209.974,35.668 211.274,35.668 C212.626,35.668 213.666,34.784 213.666,33.536 L213.666,32.86 C213.666,31.56 212.626,30.728 211.274,30.728 C209.974,30.728 208.934,31.56 208.934,32.86 L208.934,33.536 Z M209.298,66.4 C209.298,67.544 210.182,68.428 211.326,68.428 C212.47,68.428 213.302,67.544 213.302,66.4 L213.302,43.052 C213.302,41.908 212.418,41.024 211.274,41.024 C210.182,41.024 209.298,41.96 209.298,43.052 L209.298,66.4 Z M237.976,68.792 C242.5,68.792 245.568,67.024 248.116,64.476 C248.428,64.164 248.636,63.696 248.636,63.228 C248.636,62.292 247.804,61.408 246.816,61.408 C246.296,61.408 245.932,61.668 245.672,61.928 C243.696,63.8 241.252,65.204 238.184,65.204 C232.568,65.204 228.304,60.576 228.304,54.752 L228.304,54.648 C228.304,48.876 232.464,44.248 237.924,44.248 C241.148,44.248 243.332,45.704 245.256,47.472 C245.568,47.732 246.036,47.94 246.556,47.94 C247.596,47.94 248.48,47.108 248.48,46.016 C248.48,45.392 248.168,44.872 247.856,44.612 C245.464,42.428 242.448,40.712 237.976,40.712 C230.124,40.712 224.196,47.16 224.196,54.752 L224.196,54.856 C224.196,62.396 230.124,68.792 237.976,68.792 L237.976,68.792 Z M270.294,68.792 C278.406,68.792 284.386,62.344 284.386,54.752 L284.386,54.648 C284.386,47.056 278.458,40.712 270.398,40.712 C262.286,40.712 256.358,47.16 256.358,54.752 L256.358,54.856 C256.358,62.448 262.234,68.792 270.294,68.792 L270.294,68.792 Z M270.398,65.204 C264.73,65.204 260.466,60.524 260.466,54.752 L260.466,54.648 C260.466,48.98 264.47,44.248 270.294,44.248 C275.962,44.248 280.278,48.98 280.278,54.752 L280.278,54.856 C280.278,60.524 276.222,65.204 270.398,65.204 L270.398,65.204 Z M294.864,66.4 C294.864,67.544 295.748,68.428 296.892,68.428 C298.036,68.428 298.868,67.544 298.868,66.4 L298.868,52.776 C298.868,47.732 302.3,44.352 306.928,44.352 C311.66,44.352 314.364,47.472 314.364,52.464 L314.364,66.4 C314.364,67.544 315.248,68.428 316.392,68.428 C317.484,68.428 318.368,67.544 318.368,66.4 L318.368,51.476 C318.368,45.08 314.572,40.712 308.072,40.712 C303.444,40.712 300.636,43.052 298.868,45.964 L298.868,43.052 C298.868,41.908 297.984,41.024 296.84,41.024 C295.748,41.024 294.864,41.96 294.864,43.052 L294.864,66.4 Z M339.038,68.688 C344.394,68.688 348.606,65.724 348.606,60.628 L348.606,60.524 C348.606,55.688 344.134,54.076 339.974,52.828 C336.386,51.736 333.058,50.748 333.058,48.2 L333.058,48.096 C333.058,45.86 335.086,44.196 338.258,44.196 C340.546,44.196 342.99,44.976 345.278,46.276 C345.486,46.38 345.798,46.484 346.162,46.484 C347.15,46.484 347.93,45.704 347.93,44.768 C347.93,43.988 347.462,43.416 346.942,43.104 C344.342,41.7 341.222,40.816 338.362,40.816 C333.058,40.816 329.21,43.884 329.21,48.512 L329.21,48.616 C329.21,53.556 333.89,55.012 338.102,56.208 C341.638,57.196 344.81,58.236 344.81,60.94 L344.81,61.044 C344.81,63.644 342.47,65.308 339.246,65.308 C336.334,65.308 333.474,64.32 330.718,62.448 C330.458,62.24 330.094,62.136 329.73,62.136 C328.742,62.136 327.962,62.916 327.962,63.852 C327.962,64.528 328.326,65.048 328.69,65.308 C331.602,67.388 335.502,68.688 339.038,68.688 L339.038,68.688 Z" id="favicons" fill="#F46767"></path>
            </g>
        </g>
    </g>
</svg>