<?xml version="1.0" encoding="UTF-8" standalone="no"?>
<svg width="16px" height="16px" viewBox="0 0 16 16" version="1.1" xmlns="http://www.w3.org/2000/svg" xmlns:xlink="http://www.w3.org/1999/xlink">
    <!-- Generator: Sketch 3.7.2 (28276) - http://www.bohemiancoding.com/sketch -->
    <title>safari-pinned-tab</title>
    <desc>Created with Sketch.</desc>
    <defs></defs>
    <g id="apple" stroke="none" stroke-width="1" fill="none" fill-rule="evenodd">
        <g id="safari-pinned-tab" fill="#000000">
            <path d="M13.9717979,5 L14,5.02832031 L14,16 L2,16 L2,0 L8.99267578,0 L9,0.00735492976 L9,4 L10,4 L10,1.01154801 L12.9759735,4 L9,4 L9,5 L13.9717979,5 Z M6,10 L10,10 L10,11 L6,11 L6,10 Z M6,7 L11,7 L11,8 L6,8 L6,7 Z M5,7 L6,7 L6,14 L5,14 L5,7 Z" id="logo"></path>
        </g>
    </g>
</svg>