<?xml version="1.0" encoding="UTF-8" standalone="no"?>
<svg width="16px" height="16px" viewBox="0 0 16 16" version="1.1" xmlns="http://www.w3.org/2000/svg" xmlns:xlink="http://www.w3.org/1999/xlink">
    <!-- Generator: Sketch 3.7.1 (28215) - http://www.bohemiancoding.com/sketch -->
    <title>safari-pinned-tab</title>
    <desc>Created with Sketch.</desc>
    <defs>
        <path d="M10.8254025,14.5069381 C9.80738013,15.0286524 8.65252781,15.3231832 7.42853482,15.3231832 C7.17663806,15.3231832 6.92766963,15.3107089 6.68221954,15.2863472 C7.0472303,15.1714987 7.45304117,15.04185 7.90474059,14.9120637 C8.88967913,14.6290519 9.95041604,14.5720774 10.8254025,14.5069381 Z M12.5755064,13.2616038 C13.9818432,11.916768 14.8570696,10.0261675 14.8570696,7.93217975 C14.8570696,6.5224664 14.4603956,5.20493314 13.7720441,4.08404601 C13.5447954,4.48607347 13.1495471,4.97480308 12.5765094,5.55833484 C11.8549175,6.29330214 12.2878207,7.30608502 12.6936999,7.91406573 C13.099839,8.52126898 13.8593685,9.1440216 12.5765094,10.1987878 C11.8292233,10.8130087 11.7154686,11.575093 12.5755064,13.2616038 Z M12.5414634,2.57040605 C11.2096324,1.31277615 9.4096496,0.541176291 7.42853482,0.541176291 C7.14973938,0.541176291 6.87453107,0.556457024 6.6037098,0.586222624 C8.38447136,1.2907076 10.33112,2.56378362 12.2309144,2.56378362 L12.2298751,2.56378362 C12.3385274,2.56378362 12.4424102,2.5659745 12.5414634,2.57040605 Z M2.32910813,2.55768812 C0.894979784,3.90518541 0,5.81469377 0,7.93217975 C0,10.6577404 1.4828043,13.0387233 3.68957334,14.3201228 C3.54214369,13.736855 3.43770573,12.9323715 3.35483943,11.8449487 C3.12851368,8.8669835 2.67014557,10.010122 1.79316577,7.50926357 C1.32934089,6.18808468 1.87995429,5.3782212 3.12643492,4.89696792 C3.82411499,4.62809767 2.63766689,3.67537865 2.32910813,2.55768812 Z" id="path-1"></path>
        <mask id="mask-2" maskContentUnits="userSpaceOnUse" maskUnits="objectBoundingBox" x="0" y="0" width="14.8570696" height="14.7820069" fill="white">
            <use xlink:href="#path-1"></use>
        </mask>
    </defs>
    <g id="apple" stroke="none" stroke-width="1" fill="none" fill-rule="evenodd">
        <g id="safari-pinned-tab">
            <g id="lockup">
                <use id="background" stroke="#000000" mask="url(#mask-2)" stroke-width="4.0804" xlink:href="#path-1"></use>
                <g id="logo" transform="translate(1.429587, 0.000000)">
                    <path d="M10.8002886,2.82998911 C11.8254092,2.82998911 12.3359793,3.02689855 12.3928513,3.38100728 C12.4588639,3.79202886 12.0164532,4.510341 11.0204093,5.52462548 C10.3381776,6.21950288 10.4929354,7.1671663 11.1167266,8.10156496 C11.1667066,8.17628826 11.1692416,8.17977145 11.3166161,8.37943213 C11.5766874,8.73177269 11.6759231,8.92277242 11.6827238,9.14827258 C11.691658,9.44452001 11.5024989,9.76741168 11.0342724,10.1523873 C10.1641276,10.8675901 10.1375281,11.7641097 10.9891192,13.4332993 C11.1997802,13.8463573 11.1539786,14.0388567 10.8770189,14.1723341 C10.6055284,14.3031756 10.2091932,14.3603567 9.29069614,14.4274674 C8.20245672,14.5069805 7.872428,14.5379059 7.31436223,14.6330509 C6.99915142,14.6867915 6.70459501,14.7522149 6.42611756,14.8322325 C6.0481429,14.9408355 4.65907555,15.378662 4.36353196,15.4568248 C3.78317121,15.6103135 3.42138253,15.635339 3.15528044,15.5307441 C2.58009098,15.3046582 2.28709591,14.3531244 2.10178174,11.9213173 C1.99355272,10.4972537 1.84722233,9.9574741 1.48856417,9.41740742 C1.45195604,9.36228298 1.31586401,9.16524484 1.28905285,9.12549079 C1.20671405,9.00340353 1.1380679,8.89406502 1.06829394,8.7710101 C0.886872542,8.45105131 0.713633576,8.06243207 0.530700951,7.54076829 C0.120738977,6.37301479 0.532178896,5.62561529 1.76079129,5.15126075 C2.08623724,5.02584122 2.15930137,4.76298427 2.02752442,4.42893079 C1.98182129,4.31307375 1.91370993,4.18623122 1.80936873,4.01493001 C1.76533384,3.94263614 1.57166461,3.63537397 1.5222654,3.55463224 C1.02334522,2.73916012 0.868913362,2.17960195 1.12161921,1.62048469 C1.21469066,1.41456207 1.3662329,1.21489499 1.58346761,1.02087053 C2.23870859,0.435750151 2.99399808,0.2816793 3.943042,0.476257264 C4.67289473,0.6258955 5.19300681,0.842458998 6.78884382,1.59632334 C8.04271827,2.1886465 8.7248641,2.46817261 9.49899989,2.65923637 C9.95462686,2.77168925 10.3855865,2.82998911 10.8013279,2.82998911 L10.8013279,2.47704793 C10.4160381,2.47704793 10.0132518,2.42255934 9.58409964,2.31664069 C8.84008986,2.1330123 8.17354552,1.85987929 6.94047779,1.2773851 C5.31479718,0.509422817 4.78369266,0.288282301 4.01437612,0.130552988 C2.96227885,-0.0851535153 2.09276761,0.0922173314 1.34719641,0.758001247 C1.09448604,0.983710997 0.912995481,1.22283701 0.798794417,1.47550937 C0.483470383,2.17317074 0.665200535,2.83163973 1.21997155,3.73839861 C1.27107327,3.82192305 1.46449453,4.12879179 1.50671231,4.19810244 C1.60138916,4.35353729 1.661417,4.46532603 1.69800906,4.55808659 C1.76478406,4.72736065 1.75109855,4.77659591 1.63300811,4.82210531 C0.235486508,5.36167391 -0.28042604,6.29885274 0.196478193,7.65728744 C0.386076321,8.19795908 0.567820778,8.60565831 0.760047282,8.94467323 C0.834716649,9.07636178 0.908092756,9.1932341 0.995206549,9.32240144 C1.02378697,9.36477884 1.1588955,9.56039305 1.19331825,9.61222675 C1.51325623,10.0939887 1.64465151,10.578676 1.7487214,11.9480143 C1.94516566,14.5258773 2.26346666,15.5595949 3.02539323,15.8590802 C3.38071367,15.9987436 3.80652558,15.9692895 4.45433367,15.7979629 C4.7596435,15.7172172 6.15373222,15.2778081 6.52418891,15.1713652 C6.78932861,15.09518 7.07119511,15.0325751 7.37405572,14.9809402 C7.9165464,14.8884506 8.24076797,14.8580693 9.31658054,14.7794642 C10.2885478,14.7084467 10.7017469,14.6488325 11.0311405,14.4900853 C11.5011591,14.2635656 11.5993305,13.8509619 11.304738,13.2733336 C10.5199932,11.7351682 10.5413609,11.0149824 11.259552,10.4246758 C11.8046027,9.97653528 12.0493384,9.55877532 12.0366386,9.1376674 C12.0269613,8.81678254 11.9032053,8.57858832 11.6018131,8.17026689 C11.4593358,7.97724078 11.4567539,7.97369315 11.4114133,7.90590622 C10.869392,7.09399339 10.7418454,6.31295865 11.2734501,5.77150019 C13.399043,3.60698133 13.2175688,2.47704793 10.8002886,2.47704793 L10.8002886,2.82998911 L10.8002886,2.82998911 Z" id="Shape" fill="#000000"></path>
                    <path d="M9.62318677,7.35254081 C10.1986575,7.35254081 10.6651687,6.89689794 10.6651687,6.33483397 C10.6651687,5.77277 10.1986575,5.31712712 9.62318677,5.31712712 C9.04771604,5.31712712 8.58120484,5.77277 8.58120484,6.33483397 C8.58120484,6.89689794 9.04771604,7.35254081 9.62318677,7.35254081 Z M9.27759176,6.75907285 C9.51739515,6.75907285 9.71179421,6.56913463 9.71179421,6.33483397 C9.71179421,6.1005333 9.51739515,5.91059508 9.27759176,5.91059508 C9.03778838,5.91059508 8.84338932,6.1005333 8.84338932,6.33483397 C8.84338932,6.56913463 9.03778838,6.75907285 9.27759176,6.75907285 Z" id="Oval" fill="#000000"></path>
                    <path d="M4.8290305,7.26572345 C5.73873348,7.26572345 6.47619346,6.5455362 6.47619346,5.6571402 C6.47619346,4.76874421 5.73873348,4.04855696 4.8290305,4.04855696 C3.91932752,4.04855696 3.18186754,4.76874421 3.18186754,5.6571402 C3.18186754,6.5455362 3.91932752,7.26572345 4.8290305,7.26572345 Z M4.28335418,6.32731843 C4.66236121,6.32731843 4.96960712,6.02726942 4.96960712,5.6571402 C4.96960712,5.28701099 4.66236121,4.98696198 4.28335418,4.98696198 C3.90434715,4.98696198 3.59710124,5.28701099 3.59710124,5.6571402 C3.59710124,6.02726942 3.90434715,6.32731843 4.28335418,6.32731843 Z" id="Oval" fill="#000000"></path>
                    <g id="Group" transform="translate(1.653304, 3.306313)" fill="#000000">
                        <g transform="translate(-0.000000, 0.000000)" id="Shape">
                            <path d="M1.25676469,0.192572957 L1.29184388,0.177541891 L1.32744277,0.164584075 L1.39838069,0.139705069 C1.44567264,0.124414847 1.49270474,0.110938718 1.54155576,0.0992766843 C1.63795858,0.0749159907 1.73592047,0.0575525176 1.83388236,0.0440763893 C2.03136522,0.0184199142 2.23014731,0.0142734131 2.43022863,0.0287861667 C2.82857235,0.0580708303 3.22561683,0.164324919 3.58784197,0.338996275 C3.9511065,0.512631006 4.27851229,0.753128065 4.54797246,1.03923664 C4.68257262,1.18306839 4.80236156,1.33752555 4.90422114,1.50312644 C4.95489109,1.58605646 5.00218303,1.67105973 5.04323868,1.75943203 C5.06402635,1.80322945 5.08273525,1.84832265 5.10118431,1.89341585 L5.12612951,1.96286974 L5.13834227,1.99733753 L5.14899595,2.03336026 L5.11547583,2.0597942 C4.99620658,1.92088642 4.87148056,1.78742092 4.73947886,1.66017517 C4.60903624,1.5324111 4.47261715,1.41034848 4.32892239,1.29657886 C4.04309193,1.06878046 3.73309581,0.869489251 3.40075295,0.71269968 C3.06996916,0.552541078 2.71865754,0.435143268 2.35877102,0.357137217 C2.17869783,0.317486301 1.99550649,0.288201637 1.81179546,0.268505758 C1.62860413,0.247773252 1.44281433,0.236629531 1.25754423,0.234037968 L1.25754423,0.192572957 L1.25676469,0.192572957 Z"></path>
                            <path d="M9.49517794,1.4873179 L9.4723115,1.47565587 L9.44892538,1.46554877 L9.40163343,1.44559374 C9.37071177,1.43367255 9.33875073,1.42252883 9.30730938,1.41345835 C9.24338729,1.39428079 9.17946521,1.38028635 9.11450374,1.36992009 C8.98406112,1.34944674 8.85205942,1.34607771 8.72057741,1.35748059 C8.4570937,1.38106382 8.19568875,1.46554877 7.95585102,1.60393825 C7.71627313,1.74206856 7.50008136,1.93280761 7.32208694,2.16034685 C7.23373935,2.27411647 7.15422651,2.39721572 7.08666659,2.52886713 C7.05314647,2.59469284 7.02222481,2.66207348 6.99520084,2.73230484 C6.98142901,2.76729094 6.96869656,2.80305451 6.95674365,2.83881808 L6.94037336,2.89375922 L6.93283783,2.92122979 L6.925822,2.94973699 L6.94764905,2.97046949 C7.02638235,2.8600689 7.10901333,2.75407397 7.19580185,2.65300301 C7.28207068,2.55115457 7.37249704,2.45423011 7.46734078,2.36404372 C7.65624873,2.18289345 7.86074743,2.0248081 8.0797975,1.90041307 C8.29806803,1.77290816 8.52985054,1.67961189 8.76786936,1.61767353 C8.88713861,1.58605646 9.00744725,1.5632507 9.12931496,1.54744217 C9.25066298,1.53085617 9.37305038,1.52152654 9.49517794,1.51971244 L9.49517794,1.4873179 L9.49517794,1.4873179 Z"></path>
                            <path d="M9.18414244,5.32334967 L9.17504783,5.34304555 L9.15737831,5.38243731 C9.14464586,5.40809378 9.13139372,5.43323195 9.11684236,5.4578518 C9.08799946,5.50683234 9.05603842,5.55399879 9.02147892,5.59909199 C8.95184023,5.68953754 8.8718077,5.77117178 8.78294042,5.84451302 C8.60572553,5.99119549 8.39525038,6.10366933 8.16736555,6.1720866 C7.94052011,6.24102218 7.69730438,6.26667865 7.45798633,6.24853771 C7.33819739,6.23894893 7.21892813,6.21899389 7.10277703,6.18685851 C7.04431171,6.17053166 6.98714562,6.15213156 6.93023938,6.12958496 C6.90191618,6.11895956 6.87333313,6.1062609 6.84604931,6.09356224 L6.80447398,6.07308889 L6.78368631,6.06272264 L6.76341833,6.0510606 L6.7654971,6.02618159 C6.87723082,6.03991688 6.988185,6.04846904 7.09991873,6.05157891 C7.21165245,6.05572541 7.32208694,6.05468879 7.43226159,6.04717326 C7.65261089,6.0326605 7.86984203,5.99637862 8.07667935,5.93236701 C8.28481589,5.87042865 8.48229875,5.78127888 8.66549008,5.67061913 C8.75747552,5.61593715 8.84556327,5.55529457 8.93001318,5.49050549 C9.01472293,5.42623473 9.09605469,5.35678083 9.1737486,5.2834396 L9.19115827,5.30209885 L9.18414244,5.32334967 Z"></path>
                            <path d="M0.0131423648,3.74923422 L0.0354891095,3.79640067 L0.0609540046,3.84253049 L0.110584565,3.93427182 C0.145663758,3.99387778 0.182042179,4.05322457 0.220759213,4.11101643 C0.297413745,4.2268593 0.381084114,4.33881483 0.468912018,4.44791964 C0.647166283,4.66535179 0.845948372,4.86671624 1.06058106,5.05330879 C1.48984643,5.42416148 1.98485281,5.72867015 2.50402486,5.94143748 C3.02267721,6.15524144 3.56315662,6.27808153 4.08492712,6.30373801 C4.34737145,6.31540004 4.6015007,6.30425632 4.84913382,6.26590119 C4.9730803,6.24594615 5.09416847,6.22106714 5.21239834,6.18711767 C5.27190304,6.17079082 5.33010852,6.15161325 5.38753446,6.13139906 L5.47328359,6.09744958 L5.51485893,6.08034526 L5.55695396,6.06064938 L5.54630028,6.00570825 C5.30464362,6.00441246 5.06220743,5.99300959 4.81743262,5.96942636 C4.57421689,5.94765723 4.33022162,5.91474438 4.08570666,5.86861456 C3.59797596,5.77687322 3.11024527,5.63666965 2.63732579,5.4394517 C2.16336692,5.24638024 1.7055185,4.9962944 1.2720956,4.70448439 C1.05538414,4.5590977 0.844649143,4.4012715 0.640670136,4.23541146 C0.436171438,4.0708472 0.23920827,3.896435 0.0490010946,3.71450727 L0.0131423648,3.74949337 L0.0131423648,3.74923422 Z"></path>
                        </g>
                    </g>
                    <path d="M8.71424592,7.35254081 C10.2525335,8.03360361 11.3522012,6.66240755 12.5992015,6.27730126 C13.8462018,5.89219498 14.7049924,8.22356519 13.4585118,8.71518471 C12.2115115,9.20680424 8.27016933,9.35996562 7.4768599,8.18572836 C6.91351406,7.35279997 5.94610789,8.10798147 6.92468743,8.4661355 C7.3352439,8.616187 5.24322482,8.67734789 5.81566526,7.51166279 C6.19244177,6.74326432 7.24481754,6.90420039 7.30796008,5.8025269 C7.34667712,5.10643304 7.8479198,6.96924862 8.71424592,7.35254081 Z" id="Shape" fill="#000000"></path>
                    <path d="M10.1171538,11.5879325 C10.1129962,11.0494056 9.56342222,10.6484908 7.64705894,10.4642307 C5.73667212,10.2810072 4.11471421,11.1652485 4.12432851,12.4610301 C4.13862003,14.5065509 5.97469093,12.4939429 7.53610476,12.2682178 C9.26537901,12.0183911 10.1210515,12.125941 10.1174136,11.5879325 L10.1171538,11.5879325 Z" id="Shape"></path>
                    <g id="Group" transform="translate(4.015713, 10.327396)" fill="#000000">
                        <path d="M0.108615573,2.13285647 C0.11511172,3.06374595 0.498904067,3.15393235 1.0627696,2.95464114 L0.756671168,0.849255242 C0.347673772,1.18978664 0.105237577,1.62931575 0.108615573,2.13285647" id="Shape"></path>
                        <path d="M0.935445125,0.714493959 L1.25011847,2.88207737 C1.49619251,2.77763738 1.76825113,2.63458309 2.05408159,2.49049218 L1.73940824,0.325500331 C1.43798703,0.424498043 1.16592841,0.555890294 0.935445125,0.714493959" id="Shape"></path>
                        <path d="M1.92857603,0.266931004 L2.23805246,2.39719591 C2.50309525,2.26709944 2.77697279,2.14322272 3.04851173,2.05407295 L2.76839788,0.1251725 C2.47321297,0.146682474 2.19154005,0.195403861 1.92857603,0.266931004" id="Shape"></path>
                        <path d="M3.63160585,0.136834534 C3.40476041,0.115065404 3.18181266,0.109104808 2.9651012,0.116102029 L3.2387189,1.99913181 C3.33356264,1.9742528 3.42762685,1.95429777 3.52039182,1.94082164 C3.71891407,1.91205529 3.90470386,1.88847206 4.08009982,1.86773956 L3.83142733,0.157567039 C3.76646586,0.150569819 3.69994532,0.143572598 3.63160585,0.136834534" id="Shape"></path>
                        <path d="M4.03306772,0.18140942 L4.27524407,1.84519296 C4.60161048,1.80865192 4.88380309,1.78247713 5.1223416,1.7547474 L4.91628383,0.335607427 C4.66994994,0.276001475 4.37762334,0.224688525 4.03306772,0.18140942" id="Shape"></path>
                        <path d="M6.10144083,1.26053631 C6.09884237,0.901086505 5.85276833,0.603575056 5.12182191,0.390548566 L5.31618662,1.73038671 C5.84211465,1.65782294 6.1035196,1.55830692 6.10092114,1.26053631" id="Shape"></path>
                    </g>
                    <path d="M8.9073114,14.8211666 C10.1792569,14.9502265 11.2758065,15.7707154 11.2758065,15.7707154 C10.5261512,12.8225531 9.13571592,12.5501799 8.48766033,12.7735726 C7.61977513,13.0721207 7.44048148,14.6726701 8.9073114,14.8211666" id="Shape" fill="#000000"></path>
                </g>
            </g>
        </g>
    </g>
</svg>