<svg width="16" height="16" xmlns="http://www.w3.org/2000/svg">
  <style>
    .favicon {
      fill: #000000;
    }
    @media (prefers-color-scheme: dark) {
      c.faviconircle {
        fill: #ffffff;
      }
    }
  </style>
  <g id="favicon" stroke="none" stroke-width="1" fill="none" fill-rule="evenodd">
    <path class="favicon" d="M1.41876783,0.405802949 C1.69235371,0.140687176 2.06513856,-0.00566379683 2.45200061,0.000167836839 L13.6883504,0.000167836839 C14.0363609,-0.000444135679 14.3703039,0.133231217 14.6164135,0.371665815 C14.8625232,0.610100414 15.0005471,0.933673554 14.9999967,1.27090988 C14.9999967,1.97449357 14.4144127,2.71021577 13.6883504,2.71021577 L3.85728004,2.75205841 L3.85728004,6.90503639 L12.634598,6.90503639 C13.1527369,6.89358606 13.6366548,7.15490416 13.8991955,7.58792538 C14.1617361,8.02094659 14.1617361,8.55777817 13.8991955,8.99079939 C13.6366548,9.4238206 13.1527369,9.68513871 12.634598,9.67368838 L3.85728004,9.67368838 L3.85728004,14.6155079 C3.86503668,14.9809835 3.72023067,15.3340205 3.45567883,15.5946116 C3.19112699,15.8552027 2.82922909,16.0012834 2.45200061,15.9997481 C2.06880966,16.0068382 1.69883298,15.8640147 1.42563748,15.6035374 C1.15244198,15.34306 0.999073391,14.9869016 1.0001732,14.6155079 L1.0001732,1.40704727 C0.994155252,1.0321623 1.14518195,0.670918723 1.41876783,0.405802949 Z" id="Shape" fill="#000000"></path>
  </g>
</svg>
