<?xml version="1.0" encoding="UTF-8" standalone="no"?>
<svg width="794px" height="731px" viewBox="0 0 794 731" version="1.1" xmlns="http://www.w3.org/2000/svg" xmlns:xlink="http://www.w3.org/1999/xlink">
    <!-- Generator: Sketch 3.7.2 (28276) - http://www.bohemiancoding.com/sketch -->
    <title>logo-logotype</title>
    <desc>Created with Sketch.</desc>
    <defs></defs>
    <g id="logo" stroke="none" stroke-width="1" fill="none" fill-rule="evenodd">
        <g id="logo-logotype">
            <g id="lockup">
                <path d="M0,722.422874 C0,726.401166 3.25089451,729.656131 7.04360476,729.656131 C11.0169203,729.656131 14.2678148,726.401166 14.2678148,722.422874 L14.2678148,673.59839 L77.1184419,673.59839 C80.7305469,673.59839 83.6202309,670.705087 83.6202309,667.088458 C83.6202309,663.47183 80.7305469,660.578527 77.1184419,660.578527 L14.2678148,660.578527 L14.2678148,615.370671 L85.2456782,615.370671 C88.8577832,615.370671 91.7474672,612.296537 91.7474672,608.679908 C91.7474672,605.06328 88.8577832,602.169977 85.2456782,602.169977 L7.04360476,602.169977 C3.25089451,602.169977 0,605.424943 0,609.403234 L0,722.422874 Z M152.152398,601.26582 L151.429977,601.26582 C147.276056,601.26582 144.747583,603.616628 143.122136,607.233257 L94.1781128,720.433729 C93.8169023,721.337886 93.6362971,722.242043 93.6362971,723.327031 C93.6362971,726.94366 96.7065863,730.198626 100.679902,730.198626 C103.930796,730.198626 106.45927,727.666986 107.723507,725.135346 L151.610582,619.891457 L195.317053,724.773683 C196.58129,727.847817 199.109763,730.198626 202.721868,730.198626 C206.695184,730.198626 209.946078,726.762828 209.946078,723.1462 C209.946078,721.88038 209.765473,720.976223 209.223657,719.891234 L160.46024,607.233257 C159.015398,603.616628 156.306319,601.26582 152.152398,601.26582 L152.152398,601.26582 Z M261.418575,730.198626 L262.140996,730.198626 C266.294916,730.198626 268.82339,727.847817 270.448837,724.231189 L319.39286,611.030717 C319.754071,610.12656 319.934676,609.222403 319.934676,608.137414 C319.934676,604.520786 316.864386,601.26582 312.891071,601.26582 C309.640176,601.26582 307.111703,603.79746 305.847466,606.3291 L261.96039,711.572989 L218.25392,606.690763 C216.989683,603.616628 214.46121,601.26582 210.849105,601.26582 C206.875789,601.26582 203.624895,604.701617 203.624895,608.318246 C203.624895,609.584065 203.8055,610.488223 204.347316,611.573211 L253.110733,724.231189 C254.555575,727.847817 257.264654,730.198626 261.418575,730.198626 L261.418575,730.198626 Z M349.049747,722.422874 C349.049747,726.401166 352.300642,729.656131 356.093352,729.656131 C360.066667,729.656131 363.317562,726.401166 363.317562,722.422874 L363.317562,608.499077 C363.317562,604.520786 360.066667,601.26582 356.093352,601.26582 C352.300642,601.26582 349.049747,604.520786 349.049747,608.499077 L349.049747,722.422874 Z M459.075971,730.921951 C479.845574,730.921951 493.571573,723.688694 506.033336,712.296315 C507.297573,711.211326 508.381204,709.403012 508.381204,707.233035 C508.381204,703.616406 505.13031,700.361441 501.518205,700.361441 C499.712152,700.361441 498.086705,701.265598 497.003073,702.350586 C486.166758,712.296315 475.149838,717.721257 459.437181,717.721257 C431.623973,717.721257 410.493158,694.755666 410.493158,665.460976 L410.493158,665.099313 C410.493158,635.985453 431.443367,613.200694 459.437181,613.200694 C474.969233,613.200694 485.986153,618.9873 495.738836,627.667208 C496.822468,628.390534 498.447915,629.294691 500.434573,629.294691 C504.227283,629.294691 507.658783,626.039725 507.658783,622.242265 C507.658783,619.710625 506.213941,617.72148 504.769099,616.45566 C493.029758,606.690763 480.02618,600 459.617786,600 C422.413105,600 395.683528,629.656354 395.683528,665.460976 L395.683528,665.822638 C395.683528,702.169755 422.59371,730.921951 459.075971,730.921951 L459.075971,730.921951 Z M590.594219,730.921951 C629.063137,730.921951 655.250899,700.361441 655.250899,665.460976 L655.250899,665.099313 C655.250899,630.198848 629.424348,600 590.955429,600 C552.486511,600 526.29875,630.560511 526.29875,665.460976 L526.29875,665.822638 C526.29875,700.723103 552.125301,730.921951 590.594219,730.921951 L590.594219,730.921951 Z M590.955429,717.721257 C562.058589,717.721257 541.10838,694.213172 541.10838,665.460976 L541.10838,665.099313 C541.10838,636.347116 561.697379,613.200694 590.594219,613.200694 C619.491059,613.200694 640.441268,636.708779 640.441268,665.460976 L640.441268,665.822638 C640.441268,694.574835 619.85227,717.721257 590.955429,717.721257 L590.955429,717.721257 Z M686.352628,722.603706 C686.352628,726.401166 689.422917,729.656131 693.215627,729.656131 C697.188943,729.656131 700.259232,726.401166 700.259232,722.603706 L700.259232,624.593074 L778.641911,724.954514 C780.809174,727.486154 782.976437,729.294468 786.046726,729.294468 L786.769147,729.294468 C790.561857,729.294468 793.270936,726.401166 793.270936,722.603706 L793.270936,608.318246 C793.270936,604.520786 790.200647,601.26582 786.407936,601.26582 C782.434621,601.26582 779.364332,604.520786 779.364332,608.318246 L779.364332,703.797238 L702.6071,605.786606 C700.620443,603.254966 698.633785,601.627483 695.38289,601.627483 L693.396233,601.627483 C689.603522,601.627483 686.352628,604.882448 686.352628,608.679908 L686.352628,722.603706 Z" id="logotype" fill="#B1B2B1"></path>
                <g id="logo" transform="translate(205.000000, 0.000000)">
                    <polygon id="Shape" fill="#FFFFFF" points="368.421053 486.842105 13.1578947 486.842105 13.1578947 13.1578947 252.192982 13.1578947 368.421053 125"></polygon>
                    <g id="Page-1" fill="#B1B2B1">
                        <g id="Group">
                            <path d="M35.5669956,0 C15.9785499,0.0816998771 0.111010355,15.9255142 0,35.5138158 L0,464.485307 C0.106893899,484.075471 15.9766953,499.921935 35.5669956,500 L346.011075,500 C365.601678,499.92232 381.471955,484.075772 381.578947,464.485307 L381.578947,132.146096 C381.559374,131.495414 381.46765,130.848913 381.305461,130.218465 C381.306923,130.127442 381.306923,130.036411 381.305461,129.945373 C381.220665,129.760197 381.129488,129.578129 381.03193,129.399167 C381.033392,129.308143 381.033392,129.217113 381.03193,129.126075 C380.947135,128.940914 380.855958,128.758845 380.758399,128.579868 C380.669218,128.486857 380.578041,128.395826 380.484868,128.306776 C380.48633,128.215753 380.48633,128.124722 380.484868,128.033684 C380.395687,127.940673 380.304525,127.849642 380.211382,127.760592 C380.126586,127.575431 380.035409,127.393363 379.937851,127.214386 C379.84867,127.121374 379.757493,127.030344 379.66432,126.941294 C379.579525,126.756133 379.488363,126.574064 379.390833,126.395088 C379.301652,126.302061 379.210475,126.211031 379.117303,126.121996 C379.028121,126.028969 378.936944,125.937939 378.843772,125.848904 L250.083794,2.51254386 C249.439543,1.85011922 248.695229,1.29301397 247.87807,0.861600877 C247.606287,0.756951754 247.329832,0.665921053 247.048706,0.588508772 C246.776937,0.483845029 246.500468,0.392807018 246.219298,0.315394737 C245.947529,0.210745614 245.671082,0.119714912 245.389956,0.0423026316 C244.931278,0.00642779773 244.470498,0.00642779773 244.01182,0.0423026316 L35.5819956,0.0423026316 L35.5669956,0 Z M234.649123,19.4054167 L234.649123,105.442018 C234.649123,124.923882 251.237829,144.405417 270.740921,144.405417 L361.842105,144.405417 L361.842105,464.485307 C361.842105,474.455285 355.973925,480.263158 346.011075,480.263158 L35.5669956,480.263158 C25.6050219,480.263158 19.7368421,474.455285 19.7368421,464.485307 L19.7368421,35.5138158 C19.7368421,25.5667325 25.6050219,19.4054167 35.5669956,19.4054167 L234.649123,19.4054167 L234.649123,19.4054167 Z M348.684211,125 L270.740921,125 C260.775417,125 254.385965,115.400548 254.385965,105.442018 L254.385965,32.5633114 L348.684211,125 Z" id="Shape"></path>
                        </g>
                    </g>
                    <path d="M66.8094291,172.20535 C68.9093472,170.105432 71.7706705,168.946221 74.7400439,168.992412 L160.985044,168.992412 C163.65621,168.987565 166.219402,170.046375 168.108425,171.934958 C169.997449,173.823541 171.056856,176.386486 171.052632,179.057654 C171.052632,184.63057 166.557961,190.458048 160.985044,190.458048 L85.5263158,190.789474 L85.5263158,223.684211 L152.89693,223.684211 C156.873924,223.593515 160.588253,225.663353 162.603393,229.093209 C164.618533,232.523066 164.618533,236.77518 162.603393,240.205036 C160.588253,243.634893 156.873924,245.70473 152.89693,245.614035 L85.5263158,245.614035 L85.5263158,284.756996 C85.5858521,287.651839 84.4743885,290.448161 82.4438115,292.51224 C80.4132345,294.576319 77.6354744,295.733389 74.7400439,295.721228 C71.7988482,295.777387 68.9590791,294.646117 66.8621573,292.582939 C64.7652356,290.51976 63.5880496,287.698715 63.5964912,284.756996 L63.5964912,180.135965 C63.5503003,177.166592 64.709511,174.305268 66.8094291,172.20535 Z" id="Shape" fill="#29AAFF"></path>
                    <path d="M277.703947,177.856667 L321.128443,279.948202 C321.912858,281.549841 322.336144,283.30414 322.368421,285.087259 C322.339148,287.960141 321.160703,290.701674 319.096211,292.699719 C317.03172,294.697764 314.253114,295.785923 311.380811,295.721228 C306.344873,295.87327 301.805682,292.703387 300.214145,287.923136 L264.410921,198.415088 L228.077259,288.632675 C226.376363,292.917483 222.230161,295.728055 217.62011,295.721228 C214.793429,295.789682 212.057409,294.721463 210.024889,292.75584 C207.992369,290.790218 206.833213,288.091467 206.807061,285.264079 C206.867356,283.674547 207.228105,282.110808 207.870241,280.655504 L251.471491,177.856667 C253.274904,172.466182 258.374333,168.874908 264.057259,168.993136 L265.297237,168.993136 C270.920854,168.933393 275.937494,172.517352 277.703947,177.856667 L277.703947,177.856667 Z" id="Shape" fill="#EFA200"></path>
                    <path d="M276.873904,355.409101 L276.873904,355.263158 C276.718751,348.249944 279.43145,341.476973 284.384941,336.509864 C289.338432,331.542754 296.10393,328.811471 303.117544,328.947368 C309.429526,328.737354 315.611509,330.772257 320.564649,334.690373 C321.669407,335.540849 322.314076,336.858092 322.307873,338.252281 C322.267159,339.919261 321.302279,341.425102 319.804825,342.158663 C318.307371,342.892224 316.526147,342.731623 315.184057,341.742039 C311.825233,338.795865 307.511547,337.168407 303.043706,337.161754 C293.376382,337.161754 286.252566,345.159561 286.252566,355.118882 L286.252566,355.263158 C286.252566,365.22239 293.304211,373.292434 303.043706,373.292434 C307.754456,373.373121 312.313667,371.627697 315.766206,368.42182 C316.508666,367.765998 317.465049,367.403853 318.45568,367.403421 C320.748489,367.422189 322.613572,369.255356 322.671908,371.5475 C322.665312,372.771773 322.136752,373.93509 321.218947,374.745351 C316.19744,379.355516 309.566416,381.809489 302.753487,381.578947 C295.815047,381.658579 289.141668,378.91741 284.262565,373.983584 C279.383463,369.049757 276.716892,362.346221 276.873904,355.409101 L276.873904,355.409101 Z" id="Shape" fill="#84B221"></path>
                    <path d="M200.537961,429.970504 L200.537961,429.824561 C200.362872,420.499522 205.22825,411.804266 213.26716,407.075319 C221.30607,402.346373 231.269935,402.318222 239.335438,407.001668 C247.400941,411.685114 252.315375,420.352739 252.192982,429.678618 L252.192982,429.824561 C252.368071,439.1496 247.502693,447.844857 239.463783,452.573803 C231.424873,457.30275 221.461008,457.330901 213.395505,452.647455 C205.330002,447.964009 200.415568,439.296384 200.537961,429.970504 L200.537961,429.970504 Z M243.089013,429.970504 L243.089013,429.824561 C243.089013,419.939123 236.103838,411.723136 226.294649,411.723136 C216.487061,411.723136 209.641952,419.79318 209.641952,429.678618 L209.641952,429.824561 C209.641952,439.711645 216.627127,447.853838 226.436316,447.853838 C236.243904,447.853838 243.088991,439.855943 243.088991,429.970504 L243.089013,429.970504 Z" id="Shape" fill="#84B221"></path>
                    <path d="M278.508772,408.174934 C278.502034,406.954839 278.983735,405.782767 279.846486,404.920016 C280.709236,404.057266 281.881309,403.575565 283.101404,403.582303 L284.925702,403.582303 C286.854073,403.617806 288.635529,404.619995 289.667083,406.249649 L313.596491,440.789474 L313.596491,407.952654 C313.556886,406.795422 313.985982,405.671181 314.786568,404.83463 C315.587153,403.998079 316.691466,403.520025 317.84932,403.508772 C319.038455,403.496878 320.18341,403.958843 321.031325,404.792645 C321.879239,405.626446 322.360356,406.763486 322.368421,407.952654 L322.368421,451.514057 C322.392806,452.707142 321.934672,453.859578 321.097806,454.710285 C320.260941,455.560992 319.116175,456.037969 317.922851,456.033158 L317.55182,456.033158 C315.609174,455.98145 313.82474,454.949911 312.810439,453.292281 L287.280702,416.666667 L287.280702,451.662895 C287.320363,452.820301 286.891337,453.944748 286.090789,454.781578 C285.29024,455.618409 284.1859,456.09682 283.027873,456.108465 C281.83839,456.120564 280.693065,455.658437 279.845057,454.824232 C278.997049,453.990026 278.516192,452.852438 278.508772,451.662917 L278.508772,408.174934 L278.508772,408.174934 Z" id="Shape" fill="#84B221"></path>
                    <path d="M104.541667,446.811908 L61.117193,344.720373 C60.3327812,343.118741 59.9094949,341.364449 59.8772149,339.581338 C59.9064875,336.708455 61.0849332,333.966922 63.1494247,331.968877 C65.2139163,329.970832 67.9925216,328.882673 70.8648246,328.947368 C75.9007628,328.795326 80.4399539,331.965209 82.0314912,336.745461 L117.834715,426.253509 L154.168377,336.035921 C155.869275,331.751106 160.015489,328.940532 164.625548,328.947368 C167.452229,328.878915 170.188249,329.947134 172.220769,331.912756 C174.253289,333.878378 175.412445,336.577129 175.438596,339.404518 C175.378302,340.99405 175.017553,342.557788 174.375417,344.013092 L130.774123,446.811908 C128.97071,452.202392 123.871281,455.793667 118.188355,455.675439 L116.948377,455.675439 C111.32476,455.735181 106.30812,452.151222 104.541667,446.811908 L104.541667,446.811908 Z" id="Shape" fill="#EF4D21"></path>
                    <g id="Group" transform="translate(207.333333, 328.947368)" fill="#84B221">
                        <path d="M5.47502193,8.77192982 C4.30166249,8.83249991 3.15546382,8.40530172 2.30797408,7.59154362 C1.46048435,6.77778552 0.987110331,5.64987297 1,4.47502193 C0.992338934,3.28584028 1.46135258,2.14314429 2.30224844,1.30224844 C3.14314429,0.461352578 4.28584028,-0.00766106639 5.47502193,-4.93798389e-14 L31.6126974,-4.93798389e-14 C32.801879,-0.00766106639 33.944575,0.461352578 34.7854709,1.30224844 C35.6263667,2.14314429 36.0953804,3.28584028 36.0877193,4.47502193 C36.100609,5.64987297 35.627235,6.77778552 34.7797452,7.59154362 C33.9322555,8.40530172 32.7860568,8.83249991 31.6126974,8.77192982 L5.47502193,8.77192982 L5.47502193,8.77192982 Z" id="Shape"></path>
                        <path d="M5.47502193,52.6315789 C4.27443993,52.6350046 3.1231082,52.154586 2.28104276,51.2988204 C1.43897732,50.4430549 0.977200615,49.2841204 1,48.08375 C1.00286604,46.9201583 1.48369364,45.8088538 2.32986057,45.0101327 C3.17602749,44.2114116 4.31319964,43.79544 5.47502193,43.8596491 L31.6126974,43.8596491 C32.7745197,43.79544 33.9116918,44.2114116 34.7578587,45.0101327 C35.6040257,45.8088538 36.0848533,46.9201583 36.0877193,48.08375 C36.1105187,49.2841204 35.648742,50.4430549 34.8066765,51.2988204 C33.9646111,52.154586 32.8132794,52.6350046 31.6126974,52.6315789 L5.47502193,52.6315789 L5.47502193,52.6315789 Z" id="Shape"></path>
                        <rect id="Rectangle-path" x="14.1578947" y="4.38596491" width="8.77192982" height="43.8596491"></rect>
                    </g>
                </g>
            </g>
        </g>
    </g>
</svg>